solid ASCII
  facet normal -0.000000e+00 -6.211038e-17 -1.000000e+00
    outer loop
      vertex   -6.440000e+01 3.650000e+01 -2.000000e+00
      vertex   -8.750000e+01 3.650000e+01 -2.000000e+00
      vertex   -6.440000e+01 6.510000e+01 -2.000000e+00
    endloop
  endfacet
  facet normal -0.000000e+00 -6.211038e-17 -1.000000e+00
    outer loop
      vertex   -6.440000e+01 6.510000e+01 -2.000000e+00
      vertex   -8.750000e+01 3.650000e+01 -2.000000e+00
      vertex   -8.750000e+01 6.510000e+01 -2.000000e+00
    endloop
  endfacet
  facet normal 0.000000e+00 0.000000e+00 -1.000000e+00
    outer loop
      vertex   -6.970000e+01 3.650000e+01 6.000000e+00
      vertex   -8.220000e+01 3.650000e+01 6.000000e+00
      vertex   -6.970000e+01 3.900000e+01 6.000000e+00
    endloop
  endfacet
  facet normal -0.000000e+00 0.000000e+00 -1.000000e+00
    outer loop
      vertex   -6.970000e+01 3.900000e+01 6.000000e+00
      vertex   -8.220000e+01 3.650000e+01 6.000000e+00
      vertex   -8.220000e+01 3.900000e+01 6.000000e+00
    endloop
  endfacet
  facet normal 0.000000e+00 1.000000e+00 0.000000e+00
    outer loop
      vertex   -6.970000e+01 3.900000e+01 6.000000e+00
      vertex   -6.790000e+01 3.900000e+01 3.600000e+00
      vertex   -6.970000e+01 3.900000e+01 0.000000e+00
    endloop
  endfacet
  facet normal 0.000000e+00 1.000000e+00 0.000000e+00
    outer loop
      vertex   -6.970000e+01 3.900000e+01 0.000000e+00
      vertex   -6.790000e+01 3.900000e+01 3.600000e+00
      vertex   -6.790000e+01 3.900000e+01 2.000000e+00
    endloop
  endfacet
  facet normal 0.000000e+00 1.000000e+00 0.000000e+00
    outer loop
      vertex   -6.970000e+01 3.900000e+01 0.000000e+00
      vertex   -6.790000e+01 3.900000e+01 2.000000e+00
      vertex   -6.790000e+01 3.900000e+01 0.000000e+00
    endloop
  endfacet
  facet normal 0.000000e+00 1.000000e+00 0.000000e+00
    outer loop
      vertex   -8.220000e+01 3.900000e+01 6.000000e+00
      vertex   -6.790000e+01 3.900000e+01 9.600000e+00
      vertex   -6.970000e+01 3.900000e+01 6.000000e+00
    endloop
  endfacet
  facet normal 0.000000e+00 1.000000e+00 0.000000e+00
    outer loop
      vertex   -6.970000e+01 3.900000e+01 6.000000e+00
      vertex   -6.790000e+01 3.900000e+01 9.600000e+00
      vertex   -6.790000e+01 3.900000e+01 6.100000e+00
    endloop
  endfacet
  facet normal -0.000000e+00 1.000000e+00 0.000000e+00
    outer loop
      vertex   -6.970000e+01 3.900000e+01 6.000000e+00
      vertex   -6.790000e+01 3.900000e+01 6.100000e+00
      vertex   -6.790000e+01 3.900000e+01 3.600000e+00
    endloop
  endfacet
  facet normal 0.000000e+00 1.000000e+00 -0.000000e+00
    outer loop
      vertex   -8.220000e+01 3.900000e+01 0.000000e+00
      vertex   -8.400000e+01 3.900000e+01 3.600000e+00
      vertex   -8.220000e+01 3.900000e+01 6.000000e+00
    endloop
  endfacet
  facet normal 0.000000e+00 1.000000e+00 0.000000e+00
    outer loop
      vertex   -8.220000e+01 3.900000e+01 6.000000e+00
      vertex   -8.400000e+01 3.900000e+01 3.600000e+00
      vertex   -8.400000e+01 3.900000e+01 6.100000e+00
    endloop
  endfacet
  facet normal 0.000000e+00 1.000000e+00 0.000000e+00
    outer loop
      vertex   -8.220000e+01 3.900000e+01 6.000000e+00
      vertex   -8.400000e+01 3.900000e+01 6.100000e+00
      vertex   -8.400000e+01 3.900000e+01 9.600000e+00
    endloop
  endfacet
  facet normal 0.000000e+00 1.000000e+00 0.000000e+00
    outer loop
      vertex   -8.400000e+01 3.900000e+01 9.600000e+00
      vertex   -8.400000e+01 3.900000e+01 6.100000e+00
      vertex   -8.750000e+01 3.900000e+01 6.100000e+00
    endloop
  endfacet
  facet normal 0.000000e+00 1.000000e+00 0.000000e+00
    outer loop
      vertex   -8.400000e+01 3.900000e+01 9.600000e+00
      vertex   -8.750000e+01 3.900000e+01 6.100000e+00
      vertex   -8.750000e+01 3.900000e+01 9.600000e+00
    endloop
  endfacet
  facet normal 0.000000e+00 1.000000e+00 0.000000e+00
    outer loop
      vertex   -8.400000e+01 3.900000e+01 0.000000e+00
      vertex   -8.400000e+01 3.900000e+01 2.000000e+00
      vertex   -8.220000e+01 3.900000e+01 0.000000e+00
    endloop
  endfacet
  facet normal 0.000000e+00 1.000000e+00 0.000000e+00
    outer loop
      vertex   -8.220000e+01 3.900000e+01 0.000000e+00
      vertex   -8.400000e+01 3.900000e+01 2.000000e+00
      vertex   -8.400000e+01 3.900000e+01 3.600000e+00
    endloop
  endfacet
  facet normal 0.000000e+00 1.000000e+00 -0.000000e+00
    outer loop
      vertex   -8.400000e+01 3.900000e+01 2.000000e+00
      vertex   -8.500000e+01 3.900000e+01 2.000000e+00
      vertex   -8.400000e+01 3.900000e+01 3.600000e+00
    endloop
  endfacet
  facet normal 0.000000e+00 1.000000e+00 0.000000e+00
    outer loop
      vertex   -8.400000e+01 3.900000e+01 3.600000e+00
      vertex   -8.500000e+01 3.900000e+01 2.000000e+00
      vertex   -8.500000e+01 3.900000e+01 3.600000e+00
    endloop
  endfacet
  facet normal 0.000000e+00 1.000000e+00 -2.411190e-07
    outer loop
      vertex   -8.400000e+01 3.900000e+01 1.299900e+01
      vertex   -6.790000e+01 3.900000e+01 1.299900e+01
      vertex   -8.400000e+01 3.900000e+01 9.600000e+00
    endloop
  endfacet
  facet normal 0.000000e+00 1.000000e+00 -2.411190e-07
    outer loop
      vertex   -8.400000e+01 3.900000e+01 9.600000e+00
      vertex   -6.790000e+01 3.900000e+01 1.299900e+01
      vertex   -6.790000e+01 3.900000e+01 9.600000e+00
    endloop
  endfacet
  facet normal -0.000000e+00 1.000000e+00 0.000000e+00
    outer loop
      vertex   -8.400000e+01 3.900000e+01 9.600000e+00
      vertex   -6.790000e+01 3.900000e+01 9.600000e+00
      vertex   -8.220000e+01 3.900000e+01 6.000000e+00
    endloop
  endfacet
  facet normal 0.000000e+00 1.000000e+00 0.000000e+00
    outer loop
      vertex   -8.750000e+01 3.900000e+01 1.299900e+01
      vertex   -8.400000e+01 3.900000e+01 1.649900e+01
      vertex   -8.400000e+01 3.900000e+01 1.299900e+01
    endloop
  endfacet
  facet normal 5.812509e-08 1.000000e+00 -0.000000e+00
    outer loop
      vertex   -8.400000e+01 3.900000e+01 1.299900e+01
      vertex   -8.400000e+01 3.900000e+01 1.649900e+01
      vertex   -6.990000e+01 3.900000e+01 1.950000e+01
    endloop
  endfacet
  facet normal -5.185606e-08 1.000000e+00 2.385379e-07
    outer loop
      vertex   -8.400000e+01 3.900000e+01 1.299900e+01
      vertex   -6.990000e+01 3.900000e+01 1.950000e+01
      vertex   -6.790000e+01 3.900000e+01 1.649900e+01
    endloop
  endfacet
  facet normal 2.027393e-23 1.000000e+00 2.730971e-07
    outer loop
      vertex   -6.790000e+01 3.900000e+01 1.649900e+01
      vertex   -6.990000e+01 3.900000e+01 1.950000e+01
      vertex   -6.790000e+01 3.900000e+01 1.950000e+01
    endloop
  endfacet
  facet normal 0.000000e+00 1.000000e+00 0.000000e+00
    outer loop
      vertex   -8.750000e+01 3.900000e+01 1.299900e+01
      vertex   -8.750000e+01 3.900000e+01 1.649900e+01
      vertex   -8.400000e+01 3.900000e+01 1.649900e+01
    endloop
  endfacet
  facet normal -0.000000e+00 1.000000e+00 2.730971e-07
    outer loop
      vertex   -8.400000e+01 3.900000e+01 1.950000e+01
      vertex   -8.200000e+01 3.900000e+01 1.950000e+01
      vertex   -8.400000e+01 3.900000e+01 1.649900e+01
    endloop
  endfacet
  facet normal 3.351062e-24 1.000000e+00 2.730971e-07
    outer loop
      vertex   -8.400000e+01 3.900000e+01 1.649900e+01
      vertex   -8.200000e+01 3.900000e+01 1.950000e+01
      vertex   -6.990000e+01 3.900000e+01 1.950000e+01
    endloop
  endfacet
  facet normal -0.000000e+00 1.000000e+00 0.000000e+00
    outer loop
      vertex   -8.200000e+01 3.900000e+01 2.200000e+01
      vertex   -6.990000e+01 3.900000e+01 2.200000e+01
      vertex   -8.200000e+01 3.900000e+01 1.950000e+01
    endloop
  endfacet
  facet normal 0.000000e+00 1.000000e+00 0.000000e+00
    outer loop
      vertex   -8.200000e+01 3.900000e+01 1.950000e+01
      vertex   -6.990000e+01 3.900000e+01 2.200000e+01
      vertex   -6.990000e+01 3.900000e+01 1.950000e+01
    endloop
  endfacet
  facet normal 0.000000e+00 1.000000e+00 0.000000e+00
    outer loop
      vertex   -8.400000e+01 3.900000e+01 1.299900e+01
      vertex   -6.790000e+01 3.900000e+01 1.649900e+01
      vertex   -6.790000e+01 3.900000e+01 1.299900e+01
    endloop
  endfacet
  facet normal 0.000000e+00 1.000000e+00 0.000000e+00
    outer loop
      vertex   -6.790000e+01 3.900000e+01 1.299900e+01
      vertex   -6.790000e+01 3.900000e+01 1.649900e+01
      vertex   -6.440000e+01 3.900000e+01 1.649900e+01
    endloop
  endfacet
  facet normal 0.000000e+00 1.000000e+00 0.000000e+00
    outer loop
      vertex   -6.790000e+01 3.900000e+01 1.299900e+01
      vertex   -6.440000e+01 3.900000e+01 1.649900e+01
      vertex   -6.440000e+01 3.900000e+01 1.299900e+01
    endloop
  endfacet
  facet normal -0.000000e+00 1.000000e+00 0.000000e+00
    outer loop
      vertex   -6.790000e+01 3.900000e+01 9.600000e+00
      vertex   -6.440000e+01 3.900000e+01 9.600000e+00
      vertex   -6.790000e+01 3.900000e+01 6.100000e+00
    endloop
  endfacet
  facet normal 0.000000e+00 1.000000e+00 0.000000e+00
    outer loop
      vertex   -6.790000e+01 3.900000e+01 6.100000e+00
      vertex   -6.440000e+01 3.900000e+01 9.600000e+00
      vertex   -6.440000e+01 3.900000e+01 6.100000e+00
    endloop
  endfacet
  facet normal -0.000000e+00 1.000000e+00 0.000000e+00
    outer loop
      vertex   -6.790000e+01 3.900000e+01 3.600000e+00
      vertex   -6.690000e+01 3.900000e+01 3.600000e+00
      vertex   -6.790000e+01 3.900000e+01 2.000000e+00
    endloop
  endfacet
  facet normal 0.000000e+00 1.000000e+00 0.000000e+00
    outer loop
      vertex   -6.790000e+01 3.900000e+01 2.000000e+00
      vertex   -6.690000e+01 3.900000e+01 3.600000e+00
      vertex   -6.690000e+01 3.900000e+01 2.000000e+00
    endloop
  endfacet
  facet normal 7.071072e-01 7.071063e-01 0.000000e+00
    outer loop
      vertex   -8.400000e+01 5.400000e+01 1.299900e+01
      vertex   -8.400000e+01 5.400000e+01 9.600000e+00
      vertex   -8.500000e+01 5.500000e+01 1.299900e+01
    endloop
  endfacet
  facet normal 7.071072e-01 7.071063e-01 0.000000e+00
    outer loop
      vertex   -8.500000e+01 5.500000e+01 1.299900e+01
      vertex   -8.400000e+01 5.400000e+01 9.600000e+00
      vertex   -8.500000e+01 5.500000e+01 9.600000e+00
    endloop
  endfacet
  facet normal -0.000000e+00 -0.000000e+00 -1.000000e+00
    outer loop
      vertex   -8.400000e+01 5.400000e+01 9.600000e+00
      vertex   -8.400000e+01 3.900000e+01 9.600000e+00
      vertex   -8.500000e+01 5.500000e+01 9.600000e+00
    endloop
  endfacet
  facet normal 0.000000e+00 -0.000000e+00 -1.000000e+00
    outer loop
      vertex   -8.500000e+01 5.500000e+01 9.600000e+00
      vertex   -8.400000e+01 3.900000e+01 9.600000e+00
      vertex   -8.750000e+01 3.900000e+01 9.600000e+00
    endloop
  endfacet
  facet normal -0.000000e+00 0.000000e+00 -1.000000e+00
    outer loop
      vertex   -8.500000e+01 5.500000e+01 9.600000e+00
      vertex   -8.750000e+01 3.900000e+01 9.600000e+00
      vertex   -8.750000e+01 5.500000e+01 9.600000e+00
    endloop
  endfacet
  facet normal 7.071072e-01 7.071063e-01 -0.000000e+00
    outer loop
      vertex   -8.400000e+01 5.400000e+01 1.649900e+01
      vertex   -8.500000e+01 5.500000e+01 1.649900e+01
      vertex   -8.400000e+01 5.400000e+01 1.950000e+01
    endloop
  endfacet
  facet normal 7.071068e-01 7.071068e-01 2.984409e-07
    outer loop
      vertex   -8.400000e+01 5.400000e+01 1.950000e+01
      vertex   -8.500000e+01 5.500000e+01 1.649900e+01
      vertex   -8.500000e+01 5.500000e+01 1.950000e+01
    endloop
  endfacet
  facet normal -0.000000e+00 -0.000000e+00 -1.000000e+00
    outer loop
      vertex   -8.400000e+01 5.400000e+01 1.649900e+01
      vertex   -8.400000e+01 3.900000e+01 1.649900e+01
      vertex   -8.500000e+01 5.500000e+01 1.649900e+01
    endloop
  endfacet
  facet normal 0.000000e+00 -0.000000e+00 -1.000000e+00
    outer loop
      vertex   -8.500000e+01 5.500000e+01 1.649900e+01
      vertex   -8.400000e+01 3.900000e+01 1.649900e+01
      vertex   -8.750000e+01 3.900000e+01 1.649900e+01
    endloop
  endfacet
  facet normal -0.000000e+00 0.000000e+00 -1.000000e+00
    outer loop
      vertex   -8.500000e+01 5.500000e+01 1.649900e+01
      vertex   -8.750000e+01 3.900000e+01 1.649900e+01
      vertex   -8.750000e+01 5.500000e+01 1.649900e+01
    endloop
  endfacet
  facet normal -7.071072e-01 7.071063e-01 0.000000e+00
    outer loop
      vertex   -6.790000e+01 5.400000e+01 1.649900e+01
      vertex   -6.790000e+01 5.400000e+01 1.950000e+01
      vertex   -6.690000e+01 5.500000e+01 1.649900e+01
    endloop
  endfacet
  facet normal -7.071072e-01 7.071063e-01 0.000000e+00
    outer loop
      vertex   -6.690000e+01 5.500000e+01 1.649900e+01
      vertex   -6.790000e+01 5.400000e+01 1.950000e+01
      vertex   -6.690000e+01 5.500000e+01 1.950000e+01
    endloop
  endfacet
  facet normal -1.000000e+00 0.000000e+00 0.000000e+00
    outer loop
      vertex   -6.790000e+01 5.400000e+01 1.649900e+01
      vertex   -6.790000e+01 3.900000e+01 1.649900e+01
      vertex   -6.790000e+01 5.400000e+01 1.950000e+01
    endloop
  endfacet
  facet normal -1.000000e+00 -0.000000e+00 0.000000e+00
    outer loop
      vertex   -6.790000e+01 5.400000e+01 1.950000e+01
      vertex   -6.790000e+01 3.900000e+01 1.649900e+01
      vertex   -6.790000e+01 3.900000e+01 1.950000e+01
    endloop
  endfacet
  facet normal 0.000000e+00 0.000000e+00 -1.000000e+00
    outer loop
      vertex   -6.790000e+01 5.400000e+01 1.649900e+01
      vertex   -6.690000e+01 5.500000e+01 1.649900e+01
      vertex   -6.790000e+01 3.900000e+01 1.649900e+01
    endloop
  endfacet
  facet normal 0.000000e+00 0.000000e+00 -1.000000e+00
    outer loop
      vertex   -6.790000e+01 3.900000e+01 1.649900e+01
      vertex   -6.690000e+01 5.500000e+01 1.649900e+01
      vertex   -6.440000e+01 3.900000e+01 1.649900e+01
    endloop
  endfacet
  facet normal 0.000000e+00 0.000000e+00 -1.000000e+00
    outer loop
      vertex   -6.440000e+01 3.900000e+01 1.649900e+01
      vertex   -6.690000e+01 5.500000e+01 1.649900e+01
      vertex   -6.440000e+01 5.500000e+01 1.649900e+01
    endloop
  endfacet
  facet normal -7.071072e-01 7.071063e-01 0.000000e+00
    outer loop
      vertex   -6.690000e+01 5.500000e+01 1.299900e+01
      vertex   -6.690000e+01 5.500000e+01 9.600000e+00
      vertex   -6.790000e+01 5.400000e+01 1.299900e+01
    endloop
  endfacet
  facet normal -7.071072e-01 7.071063e-01 0.000000e+00
    outer loop
      vertex   -6.790000e+01 5.400000e+01 1.299900e+01
      vertex   -6.690000e+01 5.500000e+01 9.600000e+00
      vertex   -6.790000e+01 5.400000e+01 9.600000e+00
    endloop
  endfacet
  facet normal -1.000000e+00 -0.000000e+00 -0.000000e+00
    outer loop
      vertex   -6.790000e+01 5.400000e+01 1.299900e+01
      vertex   -6.790000e+01 5.400000e+01 9.600000e+00
      vertex   -6.790000e+01 3.900000e+01 1.299900e+01
    endloop
  endfacet
  facet normal -1.000000e+00 0.000000e+00 -0.000000e+00
    outer loop
      vertex   -6.790000e+01 3.900000e+01 1.299900e+01
      vertex   -6.790000e+01 5.400000e+01 9.600000e+00
      vertex   -6.790000e+01 3.900000e+01 9.600000e+00
    endloop
  endfacet
  facet normal 0.000000e+00 0.000000e+00 -1.000000e+00
    outer loop
      vertex   -6.790000e+01 5.400000e+01 9.600000e+00
      vertex   -6.690000e+01 5.500000e+01 9.600000e+00
      vertex   -6.790000e+01 3.900000e+01 9.600000e+00
    endloop
  endfacet
  facet normal 0.000000e+00 0.000000e+00 -1.000000e+00
    outer loop
      vertex   -6.790000e+01 3.900000e+01 9.600000e+00
      vertex   -6.690000e+01 5.500000e+01 9.600000e+00
      vertex   -6.440000e+01 3.900000e+01 9.600000e+00
    endloop
  endfacet
  facet normal 0.000000e+00 0.000000e+00 -1.000000e+00
    outer loop
      vertex   -6.440000e+01 3.900000e+01 9.600000e+00
      vertex   -6.690000e+01 5.500000e+01 9.600000e+00
      vertex   -6.440000e+01 5.500000e+01 9.600000e+00
    endloop
  endfacet
  facet normal 0.000000e+00 -1.000000e+00 0.000000e+00
    outer loop
      vertex   -8.200000e+01 5.500000e+01 1.950000e+01
      vertex   -6.990000e+01 5.500000e+01 1.950000e+01
      vertex   -8.200000e+01 5.500000e+01 2.200000e+01
    endloop
  endfacet
  facet normal 0.000000e+00 -1.000000e+00 0.000000e+00
    outer loop
      vertex   -8.200000e+01 5.500000e+01 2.200000e+01
      vertex   -6.990000e+01 5.500000e+01 1.950000e+01
      vertex   -6.990000e+01 5.500000e+01 2.200000e+01
    endloop
  endfacet
  facet normal 1.000000e+00 0.000000e+00 0.000000e+00
    outer loop
      vertex   -8.200000e+01 3.900000e+01 1.950000e+01
      vertex   -8.200000e+01 5.500000e+01 1.950000e+01
      vertex   -8.200000e+01 3.900000e+01 2.200000e+01
    endloop
  endfacet
  facet normal 1.000000e+00 -0.000000e+00 0.000000e+00
    outer loop
      vertex   -8.200000e+01 3.900000e+01 2.200000e+01
      vertex   -8.200000e+01 5.500000e+01 1.950000e+01
      vertex   -8.200000e+01 5.500000e+01 2.200000e+01
    endloop
  endfacet
  facet normal -1.000000e+00 0.000000e+00 0.000000e+00
    outer loop
      vertex   -6.990000e+01 5.500000e+01 1.950000e+01
      vertex   -6.990000e+01 3.900000e+01 1.950000e+01
      vertex   -6.990000e+01 5.500000e+01 2.200000e+01
    endloop
  endfacet
  facet normal -1.000000e+00 -0.000000e+00 0.000000e+00
    outer loop
      vertex   -6.990000e+01 5.500000e+01 2.200000e+01
      vertex   -6.990000e+01 3.900000e+01 1.950000e+01
      vertex   -6.990000e+01 3.900000e+01 2.200000e+01
    endloop
  endfacet
  facet normal 0.000000e+00 0.000000e+00 -1.000000e+00
    outer loop
      vertex   -6.790000e+01 3.900000e+01 1.950000e+01
      vertex   -6.990000e+01 3.900000e+01 1.950000e+01
      vertex   -6.790000e+01 5.400000e+01 1.950000e+01
    endloop
  endfacet
  facet normal -0.000000e+00 0.000000e+00 -1.000000e+00
    outer loop
      vertex   -6.790000e+01 5.400000e+01 1.950000e+01
      vertex   -6.990000e+01 3.900000e+01 1.950000e+01
      vertex   -6.990000e+01 5.500000e+01 1.950000e+01
    endloop
  endfacet
  facet normal 0.000000e+00 0.000000e+00 -1.000000e+00
    outer loop
      vertex   -6.790000e+01 5.400000e+01 1.950000e+01
      vertex   -6.990000e+01 5.500000e+01 1.950000e+01
      vertex   -6.690000e+01 5.500000e+01 1.950000e+01
    endloop
  endfacet
  facet normal 0.000000e+00 0.000000e+00 -1.000000e+00
    outer loop
      vertex   -6.690000e+01 5.500000e+01 1.950000e+01
      vertex   -6.990000e+01 5.500000e+01 1.950000e+01
      vertex   -6.690000e+01 6.100000e+01 1.950000e+01
    endloop
  endfacet
  facet normal 0.000000e+00 0.000000e+00 -1.000000e+00
    outer loop
      vertex   -6.690000e+01 6.100000e+01 1.950000e+01
      vertex   -6.990000e+01 5.500000e+01 1.950000e+01
      vertex   -8.200000e+01 5.500000e+01 1.950000e+01
    endloop
  endfacet
  facet normal -0.000000e+00 0.000000e+00 -1.000000e+00
    outer loop
      vertex   -6.690000e+01 6.100000e+01 1.950000e+01
      vertex   -8.200000e+01 5.500000e+01 1.950000e+01
      vertex   -8.500000e+01 6.100000e+01 1.950000e+01
    endloop
  endfacet
  facet normal 0.000000e+00 -0.000000e+00 -1.000000e+00
    outer loop
      vertex   -8.500000e+01 6.100000e+01 1.950000e+01
      vertex   -8.200000e+01 5.500000e+01 1.950000e+01
      vertex   -8.500000e+01 5.500000e+01 1.950000e+01
    endloop
  endfacet
  facet normal 0.000000e+00 0.000000e+00 -1.000000e+00
    outer loop
      vertex   -8.500000e+01 5.500000e+01 1.950000e+01
      vertex   -8.200000e+01 5.500000e+01 1.950000e+01
      vertex   -8.400000e+01 5.400000e+01 1.950000e+01
    endloop
  endfacet
  facet normal 0.000000e+00 0.000000e+00 -1.000000e+00
    outer loop
      vertex   -8.400000e+01 5.400000e+01 1.950000e+01
      vertex   -8.200000e+01 5.500000e+01 1.950000e+01
      vertex   -8.200000e+01 3.900000e+01 1.950000e+01
    endloop
  endfacet
  facet normal 0.000000e+00 0.000000e+00 -1.000000e+00
    outer loop
      vertex   -8.400000e+01 5.400000e+01 1.950000e+01
      vertex   -8.200000e+01 3.900000e+01 1.950000e+01
      vertex   -8.400000e+01 3.900000e+01 1.950000e+01
    endloop
  endfacet
  facet normal 0.000000e+00 -1.000000e+00 0.000000e+00
    outer loop
      vertex   -8.600000e+01 6.260000e+01 0.000000e+00
      vertex   -8.500000e+01 6.260000e+01 0.000000e+00
      vertex   -8.600000e+01 6.260000e+01 2.200000e+01
    endloop
  endfacet
  facet normal 0.000000e+00 -1.000000e+00 0.000000e+00
    outer loop
      vertex   -8.600000e+01 6.260000e+01 2.200000e+01
      vertex   -8.500000e+01 6.260000e+01 0.000000e+00
      vertex   -8.500000e+01 6.260000e+01 2.200000e+01
    endloop
  endfacet
  facet normal 1.000000e+00 0.000000e+00 -0.000000e+00
    outer loop
      vertex   -8.600000e+01 6.260000e+01 0.000000e+00
      vertex   -8.600000e+01 6.260000e+01 2.200000e+01
      vertex   -8.600000e+01 6.100000e+01 0.000000e+00
    endloop
  endfacet
  facet normal 1.000000e+00 0.000000e+00 0.000000e+00
    outer loop
      vertex   -8.600000e+01 6.100000e+01 0.000000e+00
      vertex   -8.600000e+01 6.260000e+01 2.200000e+01
      vertex   -8.600000e+01 6.100000e+01 2.200000e+01
    endloop
  endfacet
  facet normal 0.000000e+00 -1.000000e+00 0.000000e+00
    outer loop
      vertex   -6.690000e+01 6.260000e+01 0.000000e+00
      vertex   -6.590000e+01 6.260000e+01 0.000000e+00
      vertex   -6.690000e+01 6.260000e+01 2.200000e+01
    endloop
  endfacet
  facet normal 0.000000e+00 -1.000000e+00 0.000000e+00
    outer loop
      vertex   -6.690000e+01 6.260000e+01 2.200000e+01
      vertex   -6.590000e+01 6.260000e+01 0.000000e+00
      vertex   -6.590000e+01 6.260000e+01 2.200000e+01
    endloop
  endfacet
  facet normal -1.000000e+00 0.000000e+00 0.000000e+00
    outer loop
      vertex   -6.690000e+01 6.260000e+01 0.000000e+00
      vertex   -6.690000e+01 6.260000e+01 2.200000e+01
      vertex   -6.690000e+01 6.510000e+01 0.000000e+00
    endloop
  endfacet
  facet normal -1.000000e+00 0.000000e+00 0.000000e+00
    outer loop
      vertex   -6.690000e+01 6.510000e+01 0.000000e+00
      vertex   -6.690000e+01 6.260000e+01 2.200000e+01
      vertex   -6.690000e+01 6.510000e+01 2.200000e+01
    endloop
  endfacet
  facet normal 1.000000e+00 -0.000000e+00 0.000000e+00
    outer loop
      vertex   -8.500000e+01 6.260000e+01 2.200000e+01
      vertex   -8.500000e+01 6.260000e+01 0.000000e+00
      vertex   -8.500000e+01 6.510000e+01 2.200000e+01
    endloop
  endfacet
  facet normal 1.000000e+00 0.000000e+00 0.000000e+00
    outer loop
      vertex   -8.500000e+01 6.510000e+01 2.200000e+01
      vertex   -8.500000e+01 6.260000e+01 0.000000e+00
      vertex   -8.500000e+01 6.510000e+01 0.000000e+00
    endloop
  endfacet
  facet normal 0.000000e+00 1.000000e+00 0.000000e+00
    outer loop
      vertex   -8.500000e+01 6.510000e+01 2.200000e+01
      vertex   -8.500000e+01 6.510000e+01 0.000000e+00
      vertex   -8.750000e+01 6.510000e+01 2.200000e+01
    endloop
  endfacet
  facet normal 0.000000e+00 1.000000e+00 0.000000e+00
    outer loop
      vertex   -8.750000e+01 6.510000e+01 2.200000e+01
      vertex   -8.500000e+01 6.510000e+01 0.000000e+00
      vertex   -8.750000e+01 6.510000e+01 -2.000000e+00
    endloop
  endfacet
  facet normal 0.000000e+00 1.000000e+00 0.000000e+00
    outer loop
      vertex   -8.750000e+01 6.510000e+01 -2.000000e+00
      vertex   -8.500000e+01 6.510000e+01 0.000000e+00
      vertex   -6.690000e+01 6.510000e+01 0.000000e+00
    endloop
  endfacet
  facet normal 0.000000e+00 1.000000e+00 0.000000e+00
    outer loop
      vertex   -8.750000e+01 6.510000e+01 -2.000000e+00
      vertex   -6.690000e+01 6.510000e+01 0.000000e+00
      vertex   -6.440000e+01 6.510000e+01 -2.000000e+00
    endloop
  endfacet
  facet normal 0.000000e+00 1.000000e+00 -0.000000e+00
    outer loop
      vertex   -6.440000e+01 6.510000e+01 -2.000000e+00
      vertex   -6.690000e+01 6.510000e+01 0.000000e+00
      vertex   -6.440000e+01 6.510000e+01 2.200000e+01
    endloop
  endfacet
  facet normal 0.000000e+00 1.000000e+00 0.000000e+00
    outer loop
      vertex   -6.440000e+01 6.510000e+01 2.200000e+01
      vertex   -6.690000e+01 6.510000e+01 0.000000e+00
      vertex   -6.690000e+01 6.510000e+01 2.200000e+01
    endloop
  endfacet
  facet normal -1.000000e+00 0.000000e+00 0.000000e+00
    outer loop
      vertex   -6.590000e+01 6.100000e+01 0.000000e+00
      vertex   -6.590000e+01 6.100000e+01 2.200000e+01
      vertex   -6.590000e+01 6.260000e+01 0.000000e+00
    endloop
  endfacet
  facet normal -1.000000e+00 0.000000e+00 0.000000e+00
    outer loop
      vertex   -6.590000e+01 6.260000e+01 0.000000e+00
      vertex   -6.590000e+01 6.100000e+01 2.200000e+01
      vertex   -6.590000e+01 6.260000e+01 2.200000e+01
    endloop
  endfacet
  facet normal 0.000000e+00 0.000000e+00 1.000000e+00
    outer loop
      vertex   -8.400000e+01 5.400000e+01 1.299900e+01
      vertex   -8.500000e+01 5.500000e+01 1.299900e+01
      vertex   -8.400000e+01 3.900000e+01 1.299900e+01
    endloop
  endfacet
  facet normal 0.000000e+00 0.000000e+00 1.000000e+00
    outer loop
      vertex   -8.400000e+01 3.900000e+01 1.299900e+01
      vertex   -8.500000e+01 5.500000e+01 1.299900e+01
      vertex   -8.750000e+01 3.900000e+01 1.299900e+01
    endloop
  endfacet
  facet normal 0.000000e+00 0.000000e+00 1.000000e+00
    outer loop
      vertex   -8.750000e+01 3.900000e+01 1.299900e+01
      vertex   -8.500000e+01 5.500000e+01 1.299900e+01
      vertex   -8.750000e+01 5.500000e+01 1.299900e+01
    endloop
  endfacet
  facet normal 0.000000e+00 -1.000000e+00 0.000000e+00
    outer loop
      vertex   -8.500000e+01 5.500000e+01 1.299900e+01
      vertex   -8.500000e+01 5.500000e+01 1.649900e+01
      vertex   -8.750000e+01 5.500000e+01 1.299900e+01
    endloop
  endfacet
  facet normal 0.000000e+00 -1.000000e+00 0.000000e+00
    outer loop
      vertex   -8.750000e+01 5.500000e+01 1.299900e+01
      vertex   -8.500000e+01 5.500000e+01 1.649900e+01
      vertex   -8.750000e+01 5.500000e+01 1.649900e+01
    endloop
  endfacet
  facet normal 0.000000e+00 -1.000000e+00 0.000000e+00
    outer loop
      vertex   -6.440000e+01 5.500000e+01 1.299900e+01
      vertex   -6.440000e+01 5.500000e+01 1.649900e+01
      vertex   -6.690000e+01 5.500000e+01 1.299900e+01
    endloop
  endfacet
  facet normal 0.000000e+00 -1.000000e+00 0.000000e+00
    outer loop
      vertex   -6.690000e+01 5.500000e+01 1.299900e+01
      vertex   -6.440000e+01 5.500000e+01 1.649900e+01
      vertex   -6.690000e+01 5.500000e+01 1.649900e+01
    endloop
  endfacet
  facet normal -0.000000e+00 0.000000e+00 1.000000e+00
    outer loop
      vertex   -6.790000e+01 5.400000e+01 1.299900e+01
      vertex   -6.790000e+01 3.900000e+01 1.299900e+01
      vertex   -6.690000e+01 5.500000e+01 1.299900e+01
    endloop
  endfacet
  facet normal 0.000000e+00 0.000000e+00 1.000000e+00
    outer loop
      vertex   -6.690000e+01 5.500000e+01 1.299900e+01
      vertex   -6.790000e+01 3.900000e+01 1.299900e+01
      vertex   -6.440000e+01 3.900000e+01 1.299900e+01
    endloop
  endfacet
  facet normal -0.000000e+00 0.000000e+00 1.000000e+00
    outer loop
      vertex   -6.690000e+01 5.500000e+01 1.299900e+01
      vertex   -6.440000e+01 3.900000e+01 1.299900e+01
      vertex   -6.440000e+01 5.500000e+01 1.299900e+01
    endloop
  endfacet
  facet normal 0.000000e+00 0.000000e+00 1.000000e+00
    outer loop
      vertex   -8.400000e+01 5.500000e+01 6.100000e+00
      vertex   -8.500000e+01 5.500000e+01 6.100000e+00
      vertex   -8.400000e+01 3.900000e+01 6.100000e+00
    endloop
  endfacet
  facet normal 0.000000e+00 0.000000e+00 1.000000e+00
    outer loop
      vertex   -8.400000e+01 3.900000e+01 6.100000e+00
      vertex   -8.500000e+01 5.500000e+01 6.100000e+00
      vertex   -8.750000e+01 3.900000e+01 6.100000e+00
    endloop
  endfacet
  facet normal 0.000000e+00 0.000000e+00 1.000000e+00
    outer loop
      vertex   -8.750000e+01 3.900000e+01 6.100000e+00
      vertex   -8.500000e+01 5.500000e+01 6.100000e+00
      vertex   -8.750000e+01 5.500000e+01 6.100000e+00
    endloop
  endfacet
  facet normal 0.000000e+00 -1.000000e+00 0.000000e+00
    outer loop
      vertex   -8.500000e+01 5.500000e+01 6.100000e+00
      vertex   -8.500000e+01 5.500000e+01 9.600000e+00
      vertex   -8.750000e+01 5.500000e+01 6.100000e+00
    endloop
  endfacet
  facet normal 0.000000e+00 -1.000000e+00 0.000000e+00
    outer loop
      vertex   -8.750000e+01 5.500000e+01 6.100000e+00
      vertex   -8.500000e+01 5.500000e+01 9.600000e+00
      vertex   -8.750000e+01 5.500000e+01 9.600000e+00
    endloop
  endfacet
  facet normal 0.000000e+00 -1.000000e+00 0.000000e+00
    outer loop
      vertex   -6.440000e+01 5.500000e+01 6.100000e+00
      vertex   -6.440000e+01 5.500000e+01 9.600000e+00
      vertex   -6.690000e+01 5.500000e+01 6.100000e+00
    endloop
  endfacet
  facet normal 0.000000e+00 -1.000000e+00 0.000000e+00
    outer loop
      vertex   -6.690000e+01 5.500000e+01 6.100000e+00
      vertex   -6.440000e+01 5.500000e+01 9.600000e+00
      vertex   -6.690000e+01 5.500000e+01 9.600000e+00
    endloop
  endfacet
  facet normal 0.000000e+00 0.000000e+00 1.000000e+00
    outer loop
      vertex   -6.440000e+01 5.500000e+01 6.100000e+00
      vertex   -6.690000e+01 5.500000e+01 6.100000e+00
      vertex   -6.440000e+01 3.900000e+01 6.100000e+00
    endloop
  endfacet
  facet normal 0.000000e+00 0.000000e+00 1.000000e+00
    outer loop
      vertex   -6.440000e+01 3.900000e+01 6.100000e+00
      vertex   -6.690000e+01 5.500000e+01 6.100000e+00
      vertex   -6.790000e+01 3.900000e+01 6.100000e+00
    endloop
  endfacet
  facet normal 0.000000e+00 0.000000e+00 1.000000e+00
    outer loop
      vertex   -6.790000e+01 3.900000e+01 6.100000e+00
      vertex   -6.690000e+01 5.500000e+01 6.100000e+00
      vertex   -6.790000e+01 5.500000e+01 6.100000e+00
    endloop
  endfacet
  facet normal 0.000000e+00 1.000000e+00 0.000000e+00
    outer loop
      vertex   -8.400000e+01 5.500000e+01 6.100000e+00
      vertex   -8.400000e+01 5.500000e+01 3.600000e+00
      vertex   -8.500000e+01 5.500000e+01 6.100000e+00
    endloop
  endfacet
  facet normal 0.000000e+00 1.000000e+00 0.000000e+00
    outer loop
      vertex   -8.500000e+01 5.500000e+01 6.100000e+00
      vertex   -8.400000e+01 5.500000e+01 3.600000e+00
      vertex   -8.500000e+01 5.500000e+01 3.600000e+00
    endloop
  endfacet
  facet normal 1.000000e+00 0.000000e+00 0.000000e+00
    outer loop
      vertex   -8.400000e+01 5.500000e+01 6.100000e+00
      vertex   -8.400000e+01 3.900000e+01 6.100000e+00
      vertex   -8.400000e+01 5.500000e+01 3.600000e+00
    endloop
  endfacet
  facet normal 1.000000e+00 0.000000e+00 0.000000e+00
    outer loop
      vertex   -8.400000e+01 5.500000e+01 3.600000e+00
      vertex   -8.400000e+01 3.900000e+01 6.100000e+00
      vertex   -8.400000e+01 3.900000e+01 3.600000e+00
    endloop
  endfacet
  facet normal 1.000000e+00 0.000000e+00 -0.000000e+00
    outer loop
      vertex   -8.400000e+01 5.400000e+01 1.649900e+01
      vertex   -8.400000e+01 5.400000e+01 1.950000e+01
      vertex   -8.400000e+01 3.900000e+01 1.649900e+01
    endloop
  endfacet
  facet normal 1.000000e+00 0.000000e+00 -0.000000e+00
    outer loop
      vertex   -8.400000e+01 3.900000e+01 1.649900e+01
      vertex   -8.400000e+01 5.400000e+01 1.950000e+01
      vertex   -8.400000e+01 3.900000e+01 1.950000e+01
    endloop
  endfacet
  facet normal 1.000000e+00 0.000000e+00 0.000000e+00
    outer loop
      vertex   -8.400000e+01 5.400000e+01 1.299900e+01
      vertex   -8.400000e+01 3.900000e+01 1.299900e+01
      vertex   -8.400000e+01 5.400000e+01 9.600000e+00
    endloop
  endfacet
  facet normal 1.000000e+00 0.000000e+00 0.000000e+00
    outer loop
      vertex   -8.400000e+01 5.400000e+01 9.600000e+00
      vertex   -8.400000e+01 3.900000e+01 1.299900e+01
      vertex   -8.400000e+01 3.900000e+01 9.600000e+00
    endloop
  endfacet
  facet normal -1.000000e+00 0.000000e+00 0.000000e+00
    outer loop
      vertex   -6.790000e+01 3.900000e+01 6.100000e+00
      vertex   -6.790000e+01 5.500000e+01 6.100000e+00
      vertex   -6.790000e+01 3.900000e+01 3.600000e+00
    endloop
  endfacet
  facet normal -1.000000e+00 0.000000e+00 0.000000e+00
    outer loop
      vertex   -6.790000e+01 3.900000e+01 3.600000e+00
      vertex   -6.790000e+01 5.500000e+01 6.100000e+00
      vertex   -6.790000e+01 5.500000e+01 3.600000e+00
    endloop
  endfacet
  facet normal -0.000000e+00 1.000000e+00 0.000000e+00
    outer loop
      vertex   -6.790000e+01 5.500000e+01 6.100000e+00
      vertex   -6.690000e+01 5.500000e+01 6.100000e+00
      vertex   -6.790000e+01 5.500000e+01 3.600000e+00
    endloop
  endfacet
  facet normal 0.000000e+00 1.000000e+00 0.000000e+00
    outer loop
      vertex   -6.790000e+01 5.500000e+01 3.600000e+00
      vertex   -6.690000e+01 5.500000e+01 6.100000e+00
      vertex   -6.690000e+01 5.500000e+01 3.600000e+00
    endloop
  endfacet
  facet normal 1.000000e+00 -0.000000e+00 0.000000e+00
    outer loop
      vertex   -8.220000e+01 3.650000e+01 6.000000e+00
      vertex   -8.220000e+01 3.650000e+01 0.000000e+00
      vertex   -8.220000e+01 3.900000e+01 6.000000e+00
    endloop
  endfacet
  facet normal 1.000000e+00 0.000000e+00 0.000000e+00
    outer loop
      vertex   -8.220000e+01 3.900000e+01 6.000000e+00
      vertex   -8.220000e+01 3.650000e+01 0.000000e+00
      vertex   -8.220000e+01 3.900000e+01 0.000000e+00
    endloop
  endfacet
  facet normal -1.000000e+00 0.000000e+00 0.000000e+00
    outer loop
      vertex   -6.970000e+01 3.650000e+01 0.000000e+00
      vertex   -6.970000e+01 3.650000e+01 6.000000e+00
      vertex   -6.970000e+01 3.900000e+01 0.000000e+00
    endloop
  endfacet
  facet normal -1.000000e+00 0.000000e+00 0.000000e+00
    outer loop
      vertex   -6.970000e+01 3.900000e+01 0.000000e+00
      vertex   -6.970000e+01 3.650000e+01 6.000000e+00
      vertex   -6.970000e+01 3.900000e+01 6.000000e+00
    endloop
  endfacet
  facet normal 0.000000e+00 0.000000e+00 1.000000e+00
    outer loop
      vertex   -8.200000e+01 5.500000e+01 2.200000e+01
      vertex   -8.750000e+01 3.650000e+01 2.200000e+01
      vertex   -8.200000e+01 3.900000e+01 2.200000e+01
    endloop
  endfacet
  facet normal 0.000000e+00 0.000000e+00 1.000000e+00
    outer loop
      vertex   -8.200000e+01 3.900000e+01 2.200000e+01
      vertex   -8.750000e+01 3.650000e+01 2.200000e+01
      vertex   -6.440000e+01 3.650000e+01 2.200000e+01
    endloop
  endfacet
  facet normal -0.000000e+00 0.000000e+00 1.000000e+00
    outer loop
      vertex   -8.200000e+01 3.900000e+01 2.200000e+01
      vertex   -6.440000e+01 3.650000e+01 2.200000e+01
      vertex   -6.990000e+01 3.900000e+01 2.200000e+01
    endloop
  endfacet
  facet normal -0.000000e+00 0.000000e+00 1.000000e+00
    outer loop
      vertex   -6.990000e+01 3.900000e+01 2.200000e+01
      vertex   -6.440000e+01 3.650000e+01 2.200000e+01
      vertex   -6.990000e+01 5.500000e+01 2.200000e+01
    endloop
  endfacet
  facet normal -0.000000e+00 0.000000e+00 1.000000e+00
    outer loop
      vertex   -6.990000e+01 5.500000e+01 2.200000e+01
      vertex   -6.440000e+01 3.650000e+01 2.200000e+01
      vertex   -6.590000e+01 6.100000e+01 2.200000e+01
    endloop
  endfacet
  facet normal 0.000000e+00 -0.000000e+00 1.000000e+00
    outer loop
      vertex   -6.990000e+01 5.500000e+01 2.200000e+01
      vertex   -6.590000e+01 6.100000e+01 2.200000e+01
      vertex   -8.600000e+01 6.100000e+01 2.200000e+01
    endloop
  endfacet
  facet normal 0.000000e+00 0.000000e+00 1.000000e+00
    outer loop
      vertex   -8.750000e+01 3.650000e+01 2.200000e+01
      vertex   -8.200000e+01 5.500000e+01 2.200000e+01
      vertex   -8.600000e+01 6.100000e+01 2.200000e+01
    endloop
  endfacet
  facet normal 0.000000e+00 0.000000e+00 1.000000e+00
    outer loop
      vertex   -8.600000e+01 6.100000e+01 2.200000e+01
      vertex   -8.200000e+01 5.500000e+01 2.200000e+01
      vertex   -6.990000e+01 5.500000e+01 2.200000e+01
    endloop
  endfacet
  facet normal 0.000000e+00 0.000000e+00 1.000000e+00
    outer loop
      vertex   -8.750000e+01 3.650000e+01 2.200000e+01
      vertex   -8.600000e+01 6.100000e+01 2.200000e+01
      vertex   -8.750000e+01 6.510000e+01 2.200000e+01
    endloop
  endfacet
  facet normal 0.000000e+00 0.000000e+00 1.000000e+00
    outer loop
      vertex   -8.750000e+01 6.510000e+01 2.200000e+01
      vertex   -8.600000e+01 6.100000e+01 2.200000e+01
      vertex   -8.600000e+01 6.260000e+01 2.200000e+01
    endloop
  endfacet
  facet normal -0.000000e+00 0.000000e+00 1.000000e+00
    outer loop
      vertex   -8.750000e+01 6.510000e+01 2.200000e+01
      vertex   -8.600000e+01 6.260000e+01 2.200000e+01
      vertex   -8.500000e+01 6.510000e+01 2.200000e+01
    endloop
  endfacet
  facet normal 0.000000e+00 0.000000e+00 1.000000e+00
    outer loop
      vertex   -8.500000e+01 6.510000e+01 2.200000e+01
      vertex   -8.600000e+01 6.260000e+01 2.200000e+01
      vertex   -8.500000e+01 6.260000e+01 2.200000e+01
    endloop
  endfacet
  facet normal 0.000000e+00 -0.000000e+00 1.000000e+00
    outer loop
      vertex   -6.440000e+01 3.650000e+01 2.200000e+01
      vertex   -6.440000e+01 6.510000e+01 2.200000e+01
      vertex   -6.590000e+01 6.100000e+01 2.200000e+01
    endloop
  endfacet
  facet normal 0.000000e+00 0.000000e+00 1.000000e+00
    outer loop
      vertex   -6.590000e+01 6.100000e+01 2.200000e+01
      vertex   -6.440000e+01 6.510000e+01 2.200000e+01
      vertex   -6.590000e+01 6.260000e+01 2.200000e+01
    endloop
  endfacet
  facet normal 0.000000e+00 -0.000000e+00 1.000000e+00
    outer loop
      vertex   -6.590000e+01 6.260000e+01 2.200000e+01
      vertex   -6.440000e+01 6.510000e+01 2.200000e+01
      vertex   -6.690000e+01 6.510000e+01 2.200000e+01
    endloop
  endfacet
  facet normal 0.000000e+00 0.000000e+00 1.000000e+00
    outer loop
      vertex   -6.590000e+01 6.260000e+01 2.200000e+01
      vertex   -6.690000e+01 6.510000e+01 2.200000e+01
      vertex   -6.690000e+01 6.260000e+01 2.200000e+01
    endloop
  endfacet
  facet normal 0.000000e+00 0.000000e+00 -1.000000e+00
    outer loop
      vertex   -8.500000e+01 5.500000e+01 3.600000e+00
      vertex   -8.400000e+01 5.500000e+01 3.600000e+00
      vertex   -8.500000e+01 3.900000e+01 3.600000e+00
    endloop
  endfacet
  facet normal 0.000000e+00 0.000000e+00 -1.000000e+00
    outer loop
      vertex   -8.500000e+01 3.900000e+01 3.600000e+00
      vertex   -8.400000e+01 5.500000e+01 3.600000e+00
      vertex   -8.400000e+01 3.900000e+01 3.600000e+00
    endloop
  endfacet
  facet normal 1.000000e+00 -2.110998e-07 4.220592e-07
    outer loop
      vertex   -8.500000e+01 5.500000e+01 1.950000e+01
      vertex   -8.500000e+01 5.500000e+01 1.649900e+01
      vertex   -8.500000e+01 6.100000e+01 1.950000e+01
    endloop
  endfacet
  facet normal 1.000000e+00 0.000000e+00 0.000000e+00
    outer loop
      vertex   -8.500000e+01 6.100000e+01 1.950000e+01
      vertex   -8.500000e+01 5.500000e+01 1.649900e+01
      vertex   -8.500000e+01 5.500000e+01 1.299900e+01
    endloop
  endfacet
  facet normal 1.000000e+00 0.000000e+00 0.000000e+00
    outer loop
      vertex   -8.500000e+01 6.100000e+01 1.950000e+01
      vertex   -8.500000e+01 5.500000e+01 1.299900e+01
      vertex   -8.500000e+01 5.500000e+01 9.600000e+00
    endloop
  endfacet
  facet normal 1.000000e+00 0.000000e+00 0.000000e+00
    outer loop
      vertex   -8.500000e+01 6.100000e+01 1.950000e+01
      vertex   -8.500000e+01 5.500000e+01 9.600000e+00
      vertex   -8.500000e+01 6.100000e+01 0.000000e+00
    endloop
  endfacet
  facet normal 1.000000e+00 0.000000e+00 0.000000e+00
    outer loop
      vertex   -8.500000e+01 6.100000e+01 0.000000e+00
      vertex   -8.500000e+01 5.500000e+01 9.600000e+00
      vertex   -8.500000e+01 5.500000e+01 6.100000e+00
    endloop
  endfacet
  facet normal 1.000000e+00 -5.150835e-07 -5.066395e-07
    outer loop
      vertex   -8.500000e+01 6.100000e+01 0.000000e+00
      vertex   -8.500000e+01 5.500000e+01 6.100000e+00
      vertex   -8.500000e+01 5.500000e+01 3.600000e+00
    endloop
  endfacet
  facet normal 1.000000e+00 -2.110998e-07 0.000000e+00
    outer loop
      vertex   -8.500000e+01 6.100000e+01 0.000000e+00
      vertex   -8.500000e+01 5.500000e+01 3.600000e+00
      vertex   -8.500000e+01 5.500000e+01 2.000000e+00
    endloop
  endfacet
  facet normal 1.000000e+00 0.000000e+00 -0.000000e+00
    outer loop
      vertex   -8.500000e+01 5.500000e+01 2.000000e+00
      vertex   -8.500000e+01 5.500000e+01 3.600000e+00
      vertex   -8.500000e+01 3.900000e+01 3.600000e+00
    endloop
  endfacet
  facet normal 1.000000e+00 7.916241e-08 7.916242e-07
    outer loop
      vertex   -8.500000e+01 5.500000e+01 2.000000e+00
      vertex   -8.500000e+01 3.900000e+01 3.600000e+00
      vertex   -8.500000e+01 3.900000e+01 2.000000e+00
    endloop
  endfacet
  facet normal 1.000000e+00 -2.110998e-07 0.000000e+00
    outer loop
      vertex   -8.500000e+01 5.500000e+01 2.000000e+00
      vertex   -8.500000e+01 5.500000e+01 0.000000e+00
      vertex   -8.500000e+01 6.100000e+01 0.000000e+00
    endloop
  endfacet
  facet normal 0.000000e+00 0.000000e+00 -1.000000e+00
    outer loop
      vertex   -6.790000e+01 5.500000e+01 3.600000e+00
      vertex   -6.690000e+01 5.500000e+01 3.600000e+00
      vertex   -6.790000e+01 3.900000e+01 3.600000e+00
    endloop
  endfacet
  facet normal 0.000000e+00 0.000000e+00 -1.000000e+00
    outer loop
      vertex   -6.790000e+01 3.900000e+01 3.600000e+00
      vertex   -6.690000e+01 5.500000e+01 3.600000e+00
      vertex   -6.690000e+01 3.900000e+01 3.600000e+00
    endloop
  endfacet
  facet normal -1.000000e+00 0.000000e+00 0.000000e+00
    outer loop
      vertex   -6.690000e+01 5.500000e+01 6.100000e+00
      vertex   -6.690000e+01 6.100000e+01 0.000000e+00
      vertex   -6.690000e+01 5.500000e+01 3.600000e+00
    endloop
  endfacet
  facet normal -1.000000e+00 -4.749746e-07 -7.916242e-07
    outer loop
      vertex   -6.690000e+01 5.500000e+01 3.600000e+00
      vertex   -6.690000e+01 6.100000e+01 0.000000e+00
      vertex   -6.690000e+01 5.500000e+01 2.000000e+00
    endloop
  endfacet
  facet normal -1.000000e+00 7.916241e-08 -7.916242e-07
    outer loop
      vertex   -6.690000e+01 5.500000e+01 3.600000e+00
      vertex   -6.690000e+01 5.500000e+01 2.000000e+00
      vertex   -6.690000e+01 3.900000e+01 2.000000e+00
    endloop
  endfacet
  facet normal -1.000000e+00 0.000000e+00 0.000000e+00
    outer loop
      vertex   -6.690000e+01 5.500000e+01 6.100000e+00
      vertex   -6.690000e+01 5.500000e+01 9.600000e+00
      vertex   -6.690000e+01 6.100000e+01 0.000000e+00
    endloop
  endfacet
  facet normal -1.000000e+00 0.000000e+00 0.000000e+00
    outer loop
      vertex   -6.690000e+01 6.100000e+01 0.000000e+00
      vertex   -6.690000e+01 5.500000e+01 9.600000e+00
      vertex   -6.690000e+01 6.100000e+01 1.950000e+01
    endloop
  endfacet
  facet normal -1.000000e+00 0.000000e+00 0.000000e+00
    outer loop
      vertex   -6.690000e+01 6.100000e+01 1.950000e+01
      vertex   -6.690000e+01 5.500000e+01 9.600000e+00
      vertex   -6.690000e+01 5.500000e+01 1.299900e+01
    endloop
  endfacet
  facet normal -1.000000e+00 0.000000e+00 0.000000e+00
    outer loop
      vertex   -6.690000e+01 6.100000e+01 1.950000e+01
      vertex   -6.690000e+01 5.500000e+01 1.299900e+01
      vertex   -6.690000e+01 5.500000e+01 1.649900e+01
    endloop
  endfacet
  facet normal -1.000000e+00 0.000000e+00 0.000000e+00
    outer loop
      vertex   -6.690000e+01 5.500000e+01 1.649900e+01
      vertex   -6.690000e+01 5.500000e+01 1.950000e+01
      vertex   -6.690000e+01 6.100000e+01 1.950000e+01
    endloop
  endfacet
  facet normal -1.000000e+00 -2.110998e-07 0.000000e+00
    outer loop
      vertex   -6.690000e+01 6.100000e+01 0.000000e+00
      vertex   -6.690000e+01 5.500000e+01 0.000000e+00
      vertex   -6.690000e+01 5.500000e+01 2.000000e+00
    endloop
  endfacet
  facet normal -1.000000e+00 0.000000e+00 0.000000e+00
    outer loop
      vertex   -6.690000e+01 3.900000e+01 2.000000e+00
      vertex   -6.690000e+01 3.900000e+01 3.600000e+00
      vertex   -6.690000e+01 5.500000e+01 3.600000e+00
    endloop
  endfacet
  facet normal 0.000000e+00 1.000000e+00 -0.000000e+00
    outer loop
      vertex   -8.400000e+01 5.500000e+01 0.000000e+00
      vertex   -8.500000e+01 5.500000e+01 0.000000e+00
      vertex   -8.400000e+01 5.500000e+01 2.000000e+00
    endloop
  endfacet
  facet normal 0.000000e+00 1.000000e+00 0.000000e+00
    outer loop
      vertex   -8.400000e+01 5.500000e+01 2.000000e+00
      vertex   -8.500000e+01 5.500000e+01 0.000000e+00
      vertex   -8.500000e+01 5.500000e+01 2.000000e+00
    endloop
  endfacet
  facet normal 1.000000e+00 0.000000e+00 0.000000e+00
    outer loop
      vertex   -8.400000e+01 3.900000e+01 0.000000e+00
      vertex   -8.400000e+01 5.500000e+01 0.000000e+00
      vertex   -8.400000e+01 3.900000e+01 2.000000e+00
    endloop
  endfacet
  facet normal 1.000000e+00 -0.000000e+00 0.000000e+00
    outer loop
      vertex   -8.400000e+01 3.900000e+01 2.000000e+00
      vertex   -8.400000e+01 5.500000e+01 0.000000e+00
      vertex   -8.400000e+01 5.500000e+01 2.000000e+00
    endloop
  endfacet
  facet normal -0.000000e+00 0.000000e+00 1.000000e+00
    outer loop
      vertex   -8.500000e+01 5.500000e+01 2.000000e+00
      vertex   -8.500000e+01 3.900000e+01 2.000000e+00
      vertex   -8.400000e+01 5.500000e+01 2.000000e+00
    endloop
  endfacet
  facet normal 0.000000e+00 0.000000e+00 1.000000e+00
    outer loop
      vertex   -8.400000e+01 5.500000e+01 2.000000e+00
      vertex   -8.500000e+01 3.900000e+01 2.000000e+00
      vertex   -8.400000e+01 3.900000e+01 2.000000e+00
    endloop
  endfacet
  facet normal -1.000000e+00 0.000000e+00 0.000000e+00
    outer loop
      vertex   -6.790000e+01 5.500000e+01 0.000000e+00
      vertex   -6.790000e+01 3.900000e+01 0.000000e+00
      vertex   -6.790000e+01 5.500000e+01 2.000000e+00
    endloop
  endfacet
  facet normal -1.000000e+00 -0.000000e+00 0.000000e+00
    outer loop
      vertex   -6.790000e+01 5.500000e+01 2.000000e+00
      vertex   -6.790000e+01 3.900000e+01 0.000000e+00
      vertex   -6.790000e+01 3.900000e+01 2.000000e+00
    endloop
  endfacet
  facet normal 0.000000e+00 1.000000e+00 -0.000000e+00
    outer loop
      vertex   -6.690000e+01 5.500000e+01 0.000000e+00
      vertex   -6.790000e+01 5.500000e+01 0.000000e+00
      vertex   -6.690000e+01 5.500000e+01 2.000000e+00
    endloop
  endfacet
  facet normal 0.000000e+00 1.000000e+00 0.000000e+00
    outer loop
      vertex   -6.690000e+01 5.500000e+01 2.000000e+00
      vertex   -6.790000e+01 5.500000e+01 0.000000e+00
      vertex   -6.790000e+01 5.500000e+01 2.000000e+00
    endloop
  endfacet
  facet normal 0.000000e+00 0.000000e+00 1.000000e+00
    outer loop
      vertex   -6.690000e+01 5.500000e+01 2.000000e+00
      vertex   -6.790000e+01 5.500000e+01 2.000000e+00
      vertex   -6.690000e+01 3.900000e+01 2.000000e+00
    endloop
  endfacet
  facet normal 0.000000e+00 0.000000e+00 1.000000e+00
    outer loop
      vertex   -6.690000e+01 3.900000e+01 2.000000e+00
      vertex   -6.790000e+01 5.500000e+01 2.000000e+00
      vertex   -6.790000e+01 3.900000e+01 2.000000e+00
    endloop
  endfacet
  facet normal 0.000000e+00 1.000000e+00 0.000000e+00
    outer loop
      vertex   -6.690000e+01 6.100000e+01 0.000000e+00
      vertex   -6.690000e+01 6.100000e+01 1.950000e+01
      vertex   -6.590000e+01 6.100000e+01 0.000000e+00
    endloop
  endfacet
  facet normal 0.000000e+00 1.000000e+00 -0.000000e+00
    outer loop
      vertex   -6.590000e+01 6.100000e+01 0.000000e+00
      vertex   -6.690000e+01 6.100000e+01 1.950000e+01
      vertex   -6.590000e+01 6.100000e+01 2.200000e+01
    endloop
  endfacet
  facet normal 0.000000e+00 1.000000e+00 0.000000e+00
    outer loop
      vertex   -6.590000e+01 6.100000e+01 2.200000e+01
      vertex   -6.690000e+01 6.100000e+01 1.950000e+01
      vertex   -8.500000e+01 6.100000e+01 1.950000e+01
    endloop
  endfacet
  facet normal 0.000000e+00 1.000000e+00 0.000000e+00
    outer loop
      vertex   -6.590000e+01 6.100000e+01 2.200000e+01
      vertex   -8.500000e+01 6.100000e+01 1.950000e+01
      vertex   -8.600000e+01 6.100000e+01 2.200000e+01
    endloop
  endfacet
  facet normal 0.000000e+00 1.000000e+00 0.000000e+00
    outer loop
      vertex   -8.600000e+01 6.100000e+01 2.200000e+01
      vertex   -8.500000e+01 6.100000e+01 1.950000e+01
      vertex   -8.600000e+01 6.100000e+01 0.000000e+00
    endloop
  endfacet
  facet normal 0.000000e+00 1.000000e+00 0.000000e+00
    outer loop
      vertex   -8.600000e+01 6.100000e+01 0.000000e+00
      vertex   -8.500000e+01 6.100000e+01 1.950000e+01
      vertex   -8.500000e+01 6.100000e+01 0.000000e+00
    endloop
  endfacet
  facet normal -1.000000e+00 -0.000000e+00 -0.000000e+00
    outer loop
      vertex   -8.750000e+01 5.500000e+01 1.299900e+01
      vertex   -8.750000e+01 5.500000e+01 9.600000e+00
      vertex   -8.750000e+01 3.900000e+01 1.299900e+01
    endloop
  endfacet
  facet normal -1.000000e+00 0.000000e+00 -0.000000e+00
    outer loop
      vertex   -8.750000e+01 3.900000e+01 1.299900e+01
      vertex   -8.750000e+01 5.500000e+01 9.600000e+00
      vertex   -8.750000e+01 3.900000e+01 9.600000e+00
    endloop
  endfacet
  facet normal -1.000000e+00 -0.000000e+00 0.000000e+00
    outer loop
      vertex   -8.750000e+01 3.900000e+01 1.299900e+01
      vertex   -8.750000e+01 3.900000e+01 9.600000e+00
      vertex   -8.750000e+01 3.650000e+01 2.200000e+01
    endloop
  endfacet
  facet normal -1.000000e+00 0.000000e+00 0.000000e+00
    outer loop
      vertex   -8.750000e+01 3.650000e+01 2.200000e+01
      vertex   -8.750000e+01 3.900000e+01 9.600000e+00
      vertex   -8.750000e+01 3.650000e+01 -2.000000e+00
    endloop
  endfacet
  facet normal -1.000000e+00 0.000000e+00 0.000000e+00
    outer loop
      vertex   -8.750000e+01 3.650000e+01 -2.000000e+00
      vertex   -8.750000e+01 3.900000e+01 9.600000e+00
      vertex   -8.750000e+01 3.900000e+01 6.100000e+00
    endloop
  endfacet
  facet normal -1.000000e+00 0.000000e+00 0.000000e+00
    outer loop
      vertex   -8.750000e+01 3.650000e+01 -2.000000e+00
      vertex   -8.750000e+01 3.900000e+01 6.100000e+00
      vertex   -8.750000e+01 5.500000e+01 6.100000e+00
    endloop
  endfacet
  facet normal -1.000000e+00 0.000000e+00 0.000000e+00
    outer loop
      vertex   -8.750000e+01 5.500000e+01 9.600000e+00
      vertex   -8.750000e+01 5.500000e+01 1.299900e+01
      vertex   -8.750000e+01 6.510000e+01 2.200000e+01
    endloop
  endfacet
  facet normal -1.000000e+00 0.000000e+00 0.000000e+00
    outer loop
      vertex   -8.750000e+01 6.510000e+01 2.200000e+01
      vertex   -8.750000e+01 5.500000e+01 1.299900e+01
      vertex   -8.750000e+01 5.500000e+01 1.649900e+01
    endloop
  endfacet
  facet normal -1.000000e+00 -0.000000e+00 0.000000e+00
    outer loop
      vertex   -8.750000e+01 6.510000e+01 2.200000e+01
      vertex   -8.750000e+01 5.500000e+01 1.649900e+01
      vertex   -8.750000e+01 3.650000e+01 2.200000e+01
    endloop
  endfacet
  facet normal -1.000000e+00 0.000000e+00 0.000000e+00
    outer loop
      vertex   -8.750000e+01 3.650000e+01 2.200000e+01
      vertex   -8.750000e+01 5.500000e+01 1.649900e+01
      vertex   -8.750000e+01 3.900000e+01 1.649900e+01
    endloop
  endfacet
  facet normal -1.000000e+00 0.000000e+00 0.000000e+00
    outer loop
      vertex   -8.750000e+01 3.650000e+01 2.200000e+01
      vertex   -8.750000e+01 3.900000e+01 1.649900e+01
      vertex   -8.750000e+01 3.900000e+01 1.299900e+01
    endloop
  endfacet
  facet normal -1.000000e+00 0.000000e+00 0.000000e+00
    outer loop
      vertex   -8.750000e+01 3.650000e+01 -2.000000e+00
      vertex   -8.750000e+01 5.500000e+01 6.100000e+00
      vertex   -8.750000e+01 6.510000e+01 -2.000000e+00
    endloop
  endfacet
  facet normal -1.000000e+00 0.000000e+00 0.000000e+00
    outer loop
      vertex   -8.750000e+01 6.510000e+01 -2.000000e+00
      vertex   -8.750000e+01 5.500000e+01 6.100000e+00
      vertex   -8.750000e+01 5.500000e+01 9.600000e+00
    endloop
  endfacet
  facet normal -1.000000e+00 0.000000e+00 0.000000e+00
    outer loop
      vertex   -8.750000e+01 6.510000e+01 -2.000000e+00
      vertex   -8.750000e+01 5.500000e+01 9.600000e+00
      vertex   -8.750000e+01 6.510000e+01 2.200000e+01
    endloop
  endfacet
  facet normal 0.000000e+00 -1.000000e+00 0.000000e+00
    outer loop
      vertex   -6.970000e+01 3.650000e+01 0.000000e+00
      vertex   -6.440000e+01 3.650000e+01 -2.000000e+00
      vertex   -6.970000e+01 3.650000e+01 6.000000e+00
    endloop
  endfacet
  facet normal 0.000000e+00 -1.000000e+00 0.000000e+00
    outer loop
      vertex   -6.970000e+01 3.650000e+01 6.000000e+00
      vertex   -6.440000e+01 3.650000e+01 -2.000000e+00
      vertex   -6.440000e+01 3.650000e+01 2.200000e+01
    endloop
  endfacet
  facet normal 0.000000e+00 -1.000000e+00 0.000000e+00
    outer loop
      vertex   -6.970000e+01 3.650000e+01 6.000000e+00
      vertex   -6.440000e+01 3.650000e+01 2.200000e+01
      vertex   -8.750000e+01 3.650000e+01 2.200000e+01
    endloop
  endfacet
  facet normal -0.000000e+00 -1.000000e+00 -0.000000e+00
    outer loop
      vertex   -6.970000e+01 3.650000e+01 0.000000e+00
      vertex   -8.220000e+01 3.650000e+01 0.000000e+00
      vertex   -6.440000e+01 3.650000e+01 -2.000000e+00
    endloop
  endfacet
  facet normal 0.000000e+00 -1.000000e+00 0.000000e+00
    outer loop
      vertex   -6.440000e+01 3.650000e+01 -2.000000e+00
      vertex   -8.220000e+01 3.650000e+01 0.000000e+00
      vertex   -8.750000e+01 3.650000e+01 -2.000000e+00
    endloop
  endfacet
  facet normal 0.000000e+00 -1.000000e+00 0.000000e+00
    outer loop
      vertex   -8.750000e+01 3.650000e+01 -2.000000e+00
      vertex   -8.220000e+01 3.650000e+01 0.000000e+00
      vertex   -8.220000e+01 3.650000e+01 6.000000e+00
    endloop
  endfacet
  facet normal 0.000000e+00 -1.000000e+00 0.000000e+00
    outer loop
      vertex   -8.750000e+01 3.650000e+01 -2.000000e+00
      vertex   -8.220000e+01 3.650000e+01 6.000000e+00
      vertex   -8.750000e+01 3.650000e+01 2.200000e+01
    endloop
  endfacet
  facet normal 0.000000e+00 -1.000000e+00 0.000000e+00
    outer loop
      vertex   -8.750000e+01 3.650000e+01 2.200000e+01
      vertex   -8.220000e+01 3.650000e+01 6.000000e+00
      vertex   -6.970000e+01 3.650000e+01 6.000000e+00
    endloop
  endfacet
  facet normal 1.000000e+00 -0.000000e+00 0.000000e+00
    outer loop
      vertex   -6.440000e+01 3.900000e+01 1.299900e+01
      vertex   -6.440000e+01 5.500000e+01 9.600000e+00
      vertex   -6.440000e+01 5.500000e+01 1.299900e+01
    endloop
  endfacet
  facet normal 1.000000e+00 -0.000000e+00 0.000000e+00
    outer loop
      vertex   -6.440000e+01 5.500000e+01 1.299900e+01
      vertex   -6.440000e+01 5.500000e+01 9.600000e+00
      vertex   -6.440000e+01 6.510000e+01 2.200000e+01
    endloop
  endfacet
  facet normal 1.000000e+00 0.000000e+00 0.000000e+00
    outer loop
      vertex   -6.440000e+01 5.500000e+01 1.299900e+01
      vertex   -6.440000e+01 6.510000e+01 2.200000e+01
      vertex   -6.440000e+01 5.500000e+01 1.649900e+01
    endloop
  endfacet
  facet normal 1.000000e+00 0.000000e+00 -0.000000e+00
    outer loop
      vertex   -6.440000e+01 5.500000e+01 1.649900e+01
      vertex   -6.440000e+01 6.510000e+01 2.200000e+01
      vertex   -6.440000e+01 3.650000e+01 2.200000e+01
    endloop
  endfacet
  facet normal 1.000000e+00 0.000000e+00 0.000000e+00
    outer loop
      vertex   -6.440000e+01 5.500000e+01 1.649900e+01
      vertex   -6.440000e+01 3.650000e+01 2.200000e+01
      vertex   -6.440000e+01 3.900000e+01 1.649900e+01
    endloop
  endfacet
  facet normal 1.000000e+00 0.000000e+00 0.000000e+00
    outer loop
      vertex   -6.440000e+01 3.900000e+01 1.649900e+01
      vertex   -6.440000e+01 3.650000e+01 2.200000e+01
      vertex   -6.440000e+01 3.900000e+01 1.299900e+01
    endloop
  endfacet
  facet normal 1.000000e+00 0.000000e+00 0.000000e+00
    outer loop
      vertex   -6.440000e+01 3.900000e+01 1.299900e+01
      vertex   -6.440000e+01 3.650000e+01 2.200000e+01
      vertex   -6.440000e+01 3.900000e+01 9.600000e+00
    endloop
  endfacet
  facet normal 1.000000e+00 0.000000e+00 0.000000e+00
    outer loop
      vertex   -6.440000e+01 3.900000e+01 1.299900e+01
      vertex   -6.440000e+01 3.900000e+01 9.600000e+00
      vertex   -6.440000e+01 5.500000e+01 9.600000e+00
    endloop
  endfacet
  facet normal 1.000000e+00 -0.000000e+00 0.000000e+00
    outer loop
      vertex   -6.440000e+01 3.900000e+01 6.100000e+00
      vertex   -6.440000e+01 3.650000e+01 -2.000000e+00
      vertex   -6.440000e+01 5.500000e+01 6.100000e+00
    endloop
  endfacet
  facet normal 1.000000e+00 0.000000e+00 0.000000e+00
    outer loop
      vertex   -6.440000e+01 5.500000e+01 6.100000e+00
      vertex   -6.440000e+01 3.650000e+01 -2.000000e+00
      vertex   -6.440000e+01 6.510000e+01 -2.000000e+00
    endloop
  endfacet
  facet normal 1.000000e+00 -0.000000e+00 0.000000e+00
    outer loop
      vertex   -6.440000e+01 5.500000e+01 6.100000e+00
      vertex   -6.440000e+01 6.510000e+01 -2.000000e+00
      vertex   -6.440000e+01 5.500000e+01 9.600000e+00
    endloop
  endfacet
  facet normal 1.000000e+00 -0.000000e+00 0.000000e+00
    outer loop
      vertex   -6.440000e+01 5.500000e+01 9.600000e+00
      vertex   -6.440000e+01 6.510000e+01 -2.000000e+00
      vertex   -6.440000e+01 6.510000e+01 2.200000e+01
    endloop
  endfacet
  facet normal 1.000000e+00 0.000000e+00 -0.000000e+00
    outer loop
      vertex   -6.440000e+01 3.900000e+01 6.100000e+00
      vertex   -6.440000e+01 3.900000e+01 9.600000e+00
      vertex   -6.440000e+01 3.650000e+01 -2.000000e+00
    endloop
  endfacet
  facet normal 1.000000e+00 0.000000e+00 0.000000e+00
    outer loop
      vertex   -6.440000e+01 3.650000e+01 -2.000000e+00
      vertex   -6.440000e+01 3.900000e+01 9.600000e+00
      vertex   -6.440000e+01 3.650000e+01 2.200000e+01
    endloop
  endfacet
  facet normal 0.000000e+00 0.000000e+00 1.000000e+00
    outer loop
      vertex   -6.690000e+01 5.500000e+01 0.000000e+00
      vertex   -6.690000e+01 6.100000e+01 0.000000e+00
      vertex   -6.790000e+01 5.500000e+01 0.000000e+00
    endloop
  endfacet
  facet normal 0.000000e+00 -0.000000e+00 1.000000e+00
    outer loop
      vertex   -6.790000e+01 5.500000e+01 0.000000e+00
      vertex   -6.690000e+01 6.100000e+01 0.000000e+00
      vertex   -8.500000e+01 6.100000e+01 0.000000e+00
    endloop
  endfacet
  facet normal 0.000000e+00 0.000000e+00 1.000000e+00
    outer loop
      vertex   -6.790000e+01 5.500000e+01 0.000000e+00
      vertex   -8.500000e+01 6.100000e+01 0.000000e+00
      vertex   -8.400000e+01 5.500000e+01 0.000000e+00
    endloop
  endfacet
  facet normal 0.000000e+00 0.000000e+00 1.000000e+00
    outer loop
      vertex   -8.400000e+01 5.500000e+01 0.000000e+00
      vertex   -8.500000e+01 6.100000e+01 0.000000e+00
      vertex   -8.500000e+01 5.500000e+01 0.000000e+00
    endloop
  endfacet
  facet normal 0.000000e+00 0.000000e+00 1.000000e+00
    outer loop
      vertex   -6.590000e+01 6.100000e+01 0.000000e+00
      vertex   -6.690000e+01 6.260000e+01 0.000000e+00
      vertex   -6.690000e+01 6.100000e+01 0.000000e+00
    endloop
  endfacet
  facet normal 0.000000e+00 -0.000000e+00 1.000000e+00
    outer loop
      vertex   -6.690000e+01 6.100000e+01 0.000000e+00
      vertex   -6.690000e+01 6.260000e+01 0.000000e+00
      vertex   -8.500000e+01 6.260000e+01 0.000000e+00
    endloop
  endfacet
  facet normal 0.000000e+00 0.000000e+00 1.000000e+00
    outer loop
      vertex   -6.690000e+01 6.100000e+01 0.000000e+00
      vertex   -8.500000e+01 6.260000e+01 0.000000e+00
      vertex   -8.500000e+01 6.100000e+01 0.000000e+00
    endloop
  endfacet
  facet normal 0.000000e+00 -0.000000e+00 1.000000e+00
    outer loop
      vertex   -8.500000e+01 6.100000e+01 0.000000e+00
      vertex   -8.500000e+01 6.260000e+01 0.000000e+00
      vertex   -8.600000e+01 6.260000e+01 0.000000e+00
    endloop
  endfacet
  facet normal 0.000000e+00 0.000000e+00 1.000000e+00
    outer loop
      vertex   -8.500000e+01 6.100000e+01 0.000000e+00
      vertex   -8.600000e+01 6.260000e+01 0.000000e+00
      vertex   -8.600000e+01 6.100000e+01 0.000000e+00
    endloop
  endfacet
  facet normal 0.000000e+00 -0.000000e+00 1.000000e+00
    outer loop
      vertex   -6.590000e+01 6.100000e+01 0.000000e+00
      vertex   -6.590000e+01 6.260000e+01 0.000000e+00
      vertex   -6.690000e+01 6.260000e+01 0.000000e+00
    endloop
  endfacet
  facet normal 0.000000e+00 0.000000e+00 1.000000e+00
    outer loop
      vertex   -6.690000e+01 6.510000e+01 0.000000e+00
      vertex   -8.500000e+01 6.510000e+01 0.000000e+00
      vertex   -6.690000e+01 6.260000e+01 0.000000e+00
    endloop
  endfacet
  facet normal 0.000000e+00 0.000000e+00 1.000000e+00
    outer loop
      vertex   -6.690000e+01 6.260000e+01 0.000000e+00
      vertex   -8.500000e+01 6.510000e+01 0.000000e+00
      vertex   -8.500000e+01 6.260000e+01 0.000000e+00
    endloop
  endfacet
  facet normal 0.000000e+00 0.000000e+00 1.000000e+00
    outer loop
      vertex   -8.400000e+01 3.900000e+01 0.000000e+00
      vertex   -8.220000e+01 3.900000e+01 0.000000e+00
      vertex   -8.400000e+01 5.500000e+01 0.000000e+00
    endloop
  endfacet
  facet normal 0.000000e+00 0.000000e+00 1.000000e+00
    outer loop
      vertex   -8.400000e+01 5.500000e+01 0.000000e+00
      vertex   -8.220000e+01 3.900000e+01 0.000000e+00
      vertex   -6.970000e+01 3.900000e+01 0.000000e+00
    endloop
  endfacet
  facet normal -0.000000e+00 0.000000e+00 1.000000e+00
    outer loop
      vertex   -8.400000e+01 5.500000e+01 0.000000e+00
      vertex   -6.970000e+01 3.900000e+01 0.000000e+00
      vertex   -6.790000e+01 5.500000e+01 0.000000e+00
    endloop
  endfacet
  facet normal 0.000000e+00 0.000000e+00 1.000000e+00
    outer loop
      vertex   -6.790000e+01 5.500000e+01 0.000000e+00
      vertex   -6.970000e+01 3.900000e+01 0.000000e+00
      vertex   -6.790000e+01 3.900000e+01 0.000000e+00
    endloop
  endfacet
  facet normal 0.000000e+00 0.000000e+00 1.000000e+00
    outer loop
      vertex   -8.220000e+01 3.650000e+01 0.000000e+00
      vertex   -6.970000e+01 3.650000e+01 0.000000e+00
      vertex   -8.220000e+01 3.900000e+01 0.000000e+00
    endloop
  endfacet
  facet normal -0.000000e+00 0.000000e+00 1.000000e+00
    outer loop
      vertex   -8.220000e+01 3.900000e+01 0.000000e+00
      vertex   -6.970000e+01 3.650000e+01 0.000000e+00
      vertex   -6.970000e+01 3.900000e+01 0.000000e+00
    endloop
  endfacet
endsolid
